<svg width="155" height="33" viewBox="0 0 155 33" fill="none" xmlns="http://www.w3.org/2000/svg">
<path d="M25.1606 14.7083C24.7437 15.1277 24.4244 15.6339 24.2256 16.1908C24.0267 16.7477 23.9531 17.3416 24.01 17.9302L23.9902 17.9104C24.0487 18.6033 23.9552 19.3004 23.7164 19.9535C23.4776 20.6065 23.0992 21.1995 22.6076 21.6912C22.1159 22.1828 21.5229 22.5613 20.8698 22.8C20.2168 23.0388 19.5195 23.1323 18.8268 23.0738L18.8466 23.0936C18.0178 23.0165 17.1855 23.1968 16.4629 23.61C15.7404 24.0233 15.1629 24.6493 14.8092 25.4028C14.4556 26.1563 14.3428 27.0004 14.4865 27.8204C14.6303 28.6402 15.0233 29.3958 15.6121 29.9841C16.201 30.5724 16.9569 30.9647 17.7768 31.1076C18.5969 31.2506 19.4409 31.1371 20.1941 30.7828C20.9472 30.4284 21.5727 29.8504 21.9853 29.1275C22.3979 28.4046 22.5775 27.5721 22.4997 26.7434L22.5206 26.7632C22.462 26.0704 22.5554 25.3731 22.7942 24.72C23.0331 24.0671 23.4116 23.4741 23.9032 22.9824C24.3949 22.4908 24.9879 22.1123 25.6408 21.8736C26.2939 21.6348 26.9911 21.5413 27.684 21.5998L27.6631 21.58C28.34 21.6408 29.0215 21.5298 29.6442 21.2572C30.2668 20.9847 30.8106 20.5593 31.2251 20.0206C31.6396 19.4819 31.9115 18.8472 32.0153 18.1756C32.1193 17.5038 32.052 16.8168 31.8196 16.1779C31.5873 15.5391 31.1975 14.9693 30.6863 14.5213C30.1751 14.0732 29.5591 13.7615 28.8954 13.615C28.2317 13.4685 27.5416 13.4918 26.8893 13.6829C26.237 13.874 25.6436 14.2267 25.1639 14.7083H25.1606Z" fill="#030200"/>
<path d="M17.0463 20.4996L17.0254 20.4798C17.6142 20.5391 18.2089 20.4668 18.7665 20.2681C19.3239 20.0695 19.8304 19.7495 20.249 19.3312C20.6676 18.9128 20.9881 18.4066 21.1871 17.8492C21.3862 17.2919 21.4589 16.6973 21.4001 16.1084L21.421 16.1282C21.3625 15.4353 21.456 14.7381 21.6947 14.085C21.9335 13.4321 22.312 12.8391 22.8036 12.3474C23.2953 11.8558 23.8883 11.4773 24.5412 11.2386C25.1943 10.9997 25.8915 10.9063 26.5844 10.9648L26.5635 10.945C27.3923 11.0229 28.2249 10.8431 28.9478 10.4303C29.6709 10.0175 30.2488 9.39174 30.603 8.63838C30.9572 7.88504 31.0704 7.04075 30.9272 6.22069C30.784 5.40063 30.3913 4.64473 29.8025 4.05608C29.2139 3.46744 28.458 3.07469 27.638 2.93145C26.8179 2.7882 25.9737 2.9014 25.2203 3.25562C24.4669 3.60983 23.8412 4.18783 23.4284 4.91076C23.0155 5.63368 22.8358 6.46634 22.9137 7.29517L22.8939 7.27427C22.9525 7.96715 22.8592 8.66448 22.6205 9.31758C22.3818 9.97067 22.0033 10.5638 21.5117 11.0555C21.02 11.5471 20.4269 11.9256 19.7738 12.1643C19.1207 12.403 18.4234 12.4963 17.7305 12.4377L17.7503 12.4586C17.1614 12.3993 16.5667 12.4716 16.0092 12.6702C15.4517 12.8688 14.9453 13.1889 14.5266 13.6072C14.108 14.0255 13.7875 14.5317 13.5884 15.0891C13.3894 15.6465 13.3167 16.241 13.3756 16.83L13.3558 16.8102C13.4141 17.503 13.3205 18.2001 13.0817 18.8531C12.8427 19.5059 12.4643 20.099 11.9727 20.5905C11.4811 21.0821 10.8882 21.4605 10.2352 21.6995C9.58233 21.9383 8.88516 22.0319 8.19237 21.9736L8.21217 21.9934C7.38334 21.9155 6.55068 22.0952 5.82775 22.5081C5.10483 22.9209 4.52683 23.5466 4.17262 24.3C3.8184 25.0534 3.70519 25.8976 3.84844 26.7177C3.99169 27.5377 4.38444 28.2936 4.97308 28.8822C5.56173 29.471 6.31763 29.8637 7.13769 30.0069C7.95775 30.1501 8.80204 30.0369 9.55539 29.6827C10.3087 29.3285 10.9345 28.7506 11.3473 28.0276C11.7601 27.3046 11.9399 26.472 11.862 25.6432L11.8829 25.663C11.8244 24.9701 11.9179 24.2729 12.1567 23.6198C12.3954 22.9669 12.7739 22.3739 13.2655 21.8822C13.7572 21.3906 14.3502 21.0121 15.0031 20.7734C15.6562 20.5346 16.3534 20.4411 17.0463 20.4996Z" fill="#030200"/>
<path d="M9.67423 18.292C10.0912 17.8727 10.4104 17.3665 10.6091 16.8096C10.8078 16.2526 10.8811 15.6586 10.8237 15.0701L10.8446 15.0899C10.7861 14.3969 10.8796 13.6994 11.1185 13.0462C11.3574 12.3931 11.7361 11.7999 12.228 11.3082C12.7199 10.8166 13.3131 10.4382 13.9664 10.1995C14.6197 9.96087 15.3172 9.8677 16.0102 9.92653L15.9893 9.90673C16.8179 9.98435 17.6502 9.80452 18.3728 9.39175C19.0954 8.979 19.673 8.3534 20.0271 7.60028C20.3811 6.84716 20.4942 6.00318 20.3509 5.18343C20.2077 4.36367 19.815 3.60806 19.2266 3.01963C18.6382 2.43119 17.8825 2.03858 17.0628 1.89534C16.2431 1.75209 15.3991 1.86519 14.646 2.21919C13.8928 2.57319 13.2673 3.15088 12.8546 3.87347C12.4417 4.59606 12.2619 5.42839 12.3395 6.25693L12.3197 6.23713C12.3783 6.92996 12.2848 7.62722 12.0459 8.28022C11.8071 8.93323 11.4288 9.52625 10.9371 10.0179C10.4455 10.5096 9.85242 10.888 9.19942 11.1267C8.54641 11.3655 7.84917 11.459 7.15633 11.4005L7.17613 11.4203C6.49916 11.3596 5.81781 11.4708 5.19523 11.7435C4.57265 12.0162 4.02898 12.4417 3.6146 12.9805C3.20022 13.5191 2.92854 14.1538 2.82472 14.8255C2.72091 15.4973 2.78833 16.1843 3.02073 16.823C3.25313 17.4617 3.643 18.0314 4.1542 18.4794C4.6654 18.9274 5.2814 19.239 5.94512 19.3855C6.60883 19.5319 7.29878 19.5085 7.95105 19.3174C8.60331 19.1263 9.19676 18.7736 9.67642 18.292H9.67423Z" fill="#030200"/>
<path d="M43.749 7.32031H47.016V23.2186H43.749V7.32031Z" fill="#030200"/>
<path d="M48.8664 17.7748C48.8619 16.6323 49.1965 15.5141 49.8279 14.5619C50.4593 13.6097 51.3591 12.8663 52.4133 12.426C53.4676 11.9856 54.6287 11.868 55.7498 12.0881C56.871 12.3082 57.9015 12.856 58.711 13.6623C59.5205 14.4685 60.0725 15.4969 60.2971 16.6171C60.5217 17.7374 60.4088 18.8991 59.9726 19.9551C59.5365 21.011 58.7967 21.9138 57.8471 22.549C56.8974 23.1842 55.7806 23.5234 54.6381 23.5234C53.8797 23.5321 53.1272 23.3894 52.4245 23.1038C51.7219 22.8183 51.0832 22.3955 50.5458 21.8604C50.0084 21.3251 49.5831 20.6881 49.2948 19.9866C49.0064 19.2852 48.8608 18.5332 48.8664 17.7748ZM57.1428 17.7748C57.1291 17.2823 56.9706 16.8048 56.6871 16.4019C56.4036 15.999 56.0076 15.6886 55.5486 15.5096C55.0896 15.3306 54.5881 15.2907 54.1067 15.3952C53.6252 15.4997 53.1852 15.7437 52.8417 16.0969C52.4982 16.45 52.2664 16.8966 52.1754 17.3809C52.0843 17.865 52.1379 18.3653 52.3296 18.8191C52.5213 19.273 52.8425 19.6602 53.2531 19.9324C53.6637 20.2047 54.1455 20.3499 54.6381 20.3499C54.9754 20.3589 55.311 20.2978 55.6238 20.1707C55.9364 20.0435 56.2193 19.853 56.4546 19.6111C56.6899 19.3691 56.8726 19.081 56.991 18.765C57.1094 18.449 57.1611 18.1118 57.1428 17.7748Z" fill="#030200"/>
<path d="M73.4298 12.3299V22.6699C73.4298 26.3285 70.5764 27.8751 67.6801 27.8751C66.6604 27.9514 65.6393 27.7454 64.7288 27.2798C63.8184 26.814 63.0538 26.1066 62.5189 25.2351L65.3063 23.6236C65.5311 24.0779 65.8894 24.4527 66.333 24.6978C66.7768 24.9429 67.2848 25.0468 67.789 24.9953C68.1113 25.0399 68.4395 25.0116 68.7494 24.9122C69.0592 24.8129 69.3428 24.6452 69.579 24.4215C69.8153 24.1978 69.9982 23.9239 70.1144 23.6198C70.2305 23.3159 70.2767 22.9898 70.2497 22.6655V21.67C69.8671 22.138 69.3803 22.5099 68.828 22.7558C68.2756 23.0016 67.6735 23.1146 67.0696 23.0857C65.6328 23.0404 64.27 22.4378 63.2697 21.4053C62.2693 20.373 61.71 18.9918 61.71 17.5543C61.71 16.1169 62.2693 14.7357 63.2697 13.7033C64.27 12.6709 65.6328 12.0683 67.0696 12.023C67.6735 11.9941 68.2756 12.107 68.828 12.3529C69.3803 12.5987 69.8671 12.9706 70.2497 13.4387V12.3277L73.4298 12.3299ZM70.2508 17.556C70.2728 17.0295 70.1366 16.5085 69.86 16.06C69.5833 15.6114 69.1787 15.256 68.6984 15.0394C68.218 14.8227 67.6838 14.7548 67.1645 14.8444C66.6452 14.9339 66.1646 15.1768 65.7845 15.5419C65.4044 15.9069 65.1423 16.3772 65.0317 16.8925C64.9213 17.4077 64.9675 17.9443 65.1646 18.433C65.3616 18.9217 65.7004 19.3404 66.1374 19.635C66.5743 19.9296 67.0894 20.0866 67.6163 20.086C67.9596 20.11 68.304 20.0618 68.6275 19.9445C68.951 19.8273 69.2464 19.6435 69.4946 19.4052C69.7427 19.1668 69.9383 18.8792 70.0685 18.5606C70.1988 18.2422 70.2609 17.9 70.2508 17.556Z" fill="#030200"/>
<path d="M75.2804 17.7748C75.2759 16.6323 75.6104 15.5141 76.2419 14.5619C76.8733 13.6097 77.7731 12.8663 78.8274 12.426C79.8816 11.9856 81.0428 11.868 82.1639 12.0881C83.285 12.3082 84.3156 12.856 85.1251 13.6623C85.9346 14.4685 86.4866 15.4969 86.7112 16.6171C86.9358 17.7374 86.8228 18.8991 86.3867 19.9551C85.9505 21.011 85.2108 21.9138 84.2612 22.549C83.3114 23.1842 82.1947 23.5234 81.0521 23.5234C80.2938 23.5321 79.5412 23.3894 78.8386 23.1038C78.1359 22.8183 77.4973 22.3955 76.9599 21.8604C76.4224 21.3251 75.9972 20.6881 75.7089 19.9866C75.4205 19.2852 75.2748 18.5332 75.2804 17.7748ZM83.5568 17.7748C83.5432 17.2823 83.3847 16.8048 83.1012 16.4019C82.8176 15.999 82.4216 15.6886 81.9627 15.5096C81.5037 15.3306 81.0021 15.2907 80.5207 15.3952C80.0393 15.4997 79.5992 15.7437 79.2557 16.0969C78.9123 16.45 78.6804 16.8966 78.5893 17.3809C78.4983 17.865 78.5519 18.3653 78.7437 18.8191C78.9354 19.273 79.2566 19.6602 79.6671 19.9324C80.0777 20.2047 80.5594 20.3499 81.0521 20.3499C81.3895 20.3589 81.7251 20.2978 82.0377 20.1707C82.3505 20.0435 82.6334 19.853 82.8687 19.6111C83.104 19.3691 83.2867 19.081 83.405 18.765C83.5235 18.449 83.5752 18.1118 83.5568 17.7748Z" fill="#030200"/>
<path d="M88.3467 9.41137C88.3467 9.02368 88.4616 8.6447 88.677 8.32235C88.8924 8 89.1986 7.74875 89.5568 7.60039C89.9149 7.45202 90.3091 7.4132 90.6893 7.48884C91.0695 7.56447 91.4189 7.75117 91.693 8.02531C91.9671 8.29944 92.1538 8.64871 92.2295 9.02896C92.305 9.4092 92.2662 9.80333 92.1179 10.1615C91.9695 10.5197 91.7183 10.8258 91.3959 11.0412C91.0736 11.2566 90.6946 11.3716 90.3069 11.3716C89.7887 11.3664 89.293 11.1583 88.9265 10.7917C88.5601 10.4252 88.3518 9.92965 88.3467 9.41137ZM88.6767 12.3297H91.9448V23.2197H88.6723L88.6767 12.3297Z" fill="#030200"/>
<path d="M106.052 17.7748C106.09 18.4945 105.985 19.2146 105.743 19.8936C105.502 20.5727 105.129 21.1972 104.645 21.7315C104.161 22.2657 103.576 22.6991 102.925 23.0066C102.273 23.3141 101.567 23.4897 100.847 23.5234C100.241 23.5564 99.6363 23.4543 99.0752 23.2245C98.5141 22.9946 98.0113 22.6429 97.6029 22.1946V27.5747H94.3359V12.3298H97.6029V13.3528C98.0114 12.9049 98.5144 12.5533 99.0754 12.3238C99.6365 12.0941 100.242 11.9921 100.847 12.0251C101.567 12.0587 102.273 12.2342 102.925 12.5418C103.577 12.8493 104.162 13.2827 104.646 13.8171C105.129 14.3515 105.503 14.9763 105.744 15.6555C105.985 16.3347 106.09 17.055 106.052 17.7748ZM102.785 17.7748C102.772 17.2652 102.609 16.7706 102.317 16.3529C102.024 15.9354 101.615 15.6133 101.141 15.4272C100.666 15.241 100.147 15.1988 99.6488 15.3062C99.1504 15.4134 98.6948 15.6653 98.3388 16.0303C97.9829 16.3954 97.7425 16.8572 97.6478 17.3582C97.5531 17.8592 97.6082 18.3768 97.8063 18.8466C98.0043 19.3165 98.3366 19.7173 98.7615 19.9992C99.1863 20.281 99.6847 20.4314 100.195 20.4313C100.545 20.4469 100.894 20.3883 101.22 20.2594C101.545 20.1306 101.84 19.9342 102.085 19.6834C102.33 19.4325 102.518 19.1329 102.639 18.804C102.76 18.4751 102.809 18.1243 102.785 17.7748Z" fill="#030200"/>
<path d="M116.133 19.9519C116.133 22.4566 113.956 23.5236 111.605 23.5236C110.654 23.6097 109.7 23.4088 108.865 22.9467C108.031 22.4847 107.354 21.7829 106.922 20.932L109.752 19.3205C109.867 19.7138 110.113 20.056 110.449 20.2897C110.785 20.5236 111.192 20.635 111.6 20.6053C112.383 20.6053 112.776 20.3655 112.776 19.931C112.776 18.732 107.418 19.3645 107.418 15.597C107.418 13.2221 109.422 12.0253 111.687 12.0253C112.538 11.9984 113.381 12.2003 114.128 12.6101C114.875 13.02 115.499 13.6225 115.933 14.3551L113.146 15.8577C113.024 15.5725 112.82 15.3295 112.56 15.1591C112.301 14.9887 111.997 14.8985 111.687 14.8996C111.121 14.8996 110.772 15.1196 110.772 15.509C110.776 16.7509 116.133 15.9226 116.133 19.9519Z" fill="#030200"/>
<path d="M128.067 12.3301V23.2201H124.8V22.196C124.423 22.6479 123.944 23.0039 123.403 23.2349C122.862 23.4659 122.275 23.5653 121.687 23.5248C119.487 23.5248 117.617 21.9573 117.617 19.0148V12.3301H120.884V18.5363C120.857 18.7957 120.886 19.0579 120.971 19.3046C121.055 19.5515 121.192 19.777 121.373 19.9654C121.553 20.1538 121.772 20.3007 122.015 20.3958C122.257 20.491 122.518 20.5321 122.778 20.5163C123.976 20.5163 124.803 19.82 124.803 18.2734V12.3334L128.067 12.3301Z" fill="#030200"/>
<path d="M146.8 16.5329V23.2187H143.533V16.8156C143.533 15.7266 143.01 15.0303 141.965 15.0303C140.876 15.0303 140.266 15.7926 140.266 17.0774V23.2187H137V16.8156C137 15.7266 136.477 15.0303 135.431 15.0303C134.342 15.0303 133.733 15.7926 133.733 17.0774V23.2187H130.466V12.3287H133.733V13.3297C134.072 12.8856 134.516 12.5334 135.025 12.3054C135.536 12.0772 136.095 11.9806 136.651 12.024C137.21 11.9966 137.767 12.1146 138.267 12.3664C138.766 12.6181 139.192 12.9952 139.503 13.4606C139.865 12.9736 140.345 12.5864 140.897 12.3352C141.449 12.084 142.057 11.9769 142.662 12.024C145.162 12.0251 146.8 13.8104 146.8 16.5329Z" fill="#030200"/>
<path d="M149.563 12.2629C150.902 12.2629 151.987 11.1774 151.987 9.83846C151.987 8.4995 150.902 7.41406 149.563 7.41406C148.224 7.41406 147.139 8.4995 147.139 9.83846C147.139 11.1774 148.224 12.2629 149.563 12.2629Z" fill="#030200"/>
</svg>
