<svg width="184" height="37" viewBox="0 0 184 37" fill="none" xmlns="http://www.w3.org/2000/svg">
<path d="M29.4651 16.491C28.967 16.9613 28.5856 17.5288 28.348 18.1531C28.1104 18.7776 28.0224 19.4435 28.0904 20.1034L28.0667 20.0812C28.1367 20.8581 28.0249 21.6398 27.7396 22.372C27.4543 23.1041 27.0022 23.769 26.4148 24.3203C25.8273 24.8715 25.1188 25.2959 24.3385 25.5635C23.5583 25.8313 22.7252 25.9361 21.8975 25.8705L21.9211 25.8927C20.931 25.8062 19.9364 26.0084 19.0731 26.4717C18.2099 26.9351 17.5199 27.637 17.0973 28.4818C16.6748 29.3267 16.5401 30.2731 16.7117 31.1924C16.8835 32.1116 17.3531 32.9588 18.0566 33.6184C18.7601 34.278 19.6633 34.7179 20.643 34.8781C21.6228 35.0385 22.6312 34.9112 23.5311 34.5139C24.431 34.1165 25.1783 33.4686 25.6713 32.658C26.1643 31.8475 26.3789 30.9141 26.2859 29.9849L26.3108 30.0071C26.2409 29.2303 26.3525 28.4485 26.6378 27.7163C26.9232 26.9842 27.3754 26.3193 27.9628 25.768C28.5503 25.2168 29.2588 24.7924 30.0389 24.5248C30.8192 24.257 31.6522 24.1522 32.4801 24.2178L32.4551 24.1956C33.2639 24.2638 34.0781 24.1394 34.8222 23.8338C35.566 23.5281 36.2158 23.0512 36.7111 22.4472C37.2063 21.8433 37.5312 21.1316 37.6552 20.3786C37.7794 19.6254 37.699 18.855 37.4214 18.1387C37.1438 17.4225 36.6781 16.7837 36.0673 16.2813C35.4566 15.779 34.7206 15.4295 33.9275 15.2652C33.1345 15.1009 32.31 15.127 31.5307 15.3413C30.7513 15.5556 30.0422 15.951 29.4691 16.491H29.4651Z" fill="white"/>
<path d="M19.7697 22.9845L19.7447 22.9623C20.4482 23.0288 21.1587 22.9477 21.8249 22.725C22.491 22.5023 23.0961 22.1435 23.5963 21.6745C24.0964 21.2054 24.4794 20.6378 24.7172 20.0129C24.955 19.388 25.0419 18.7214 24.9716 18.061L24.9966 18.0832C24.9267 17.3064 25.0384 16.5247 25.3236 15.7924C25.6089 15.0603 26.0611 14.3954 26.6485 13.8441C27.236 13.293 27.9445 12.8686 28.7247 12.6009C29.505 12.3331 30.338 12.2284 31.1658 12.294L31.1409 12.2718C32.1312 12.3591 33.126 12.1575 33.9897 11.6947C34.8536 11.2319 35.5441 10.5303 35.9673 9.68559C36.3905 8.84093 36.5258 7.89431 36.3546 6.97485C36.1835 6.05538 35.7143 5.20786 35.0109 4.54786C34.3076 3.88786 33.4045 3.44751 32.4247 3.28691C31.4449 3.12629 30.4361 3.25322 29.536 3.65037C28.6358 4.04752 27.8883 4.69557 27.395 5.50613C26.9018 6.31668 26.687 7.25028 26.7801 8.17957L26.7564 8.15613C26.8265 8.933 26.715 9.71486 26.4298 10.4471C26.1446 11.1794 25.6924 11.8444 25.105 12.3957C24.5175 12.9469 23.8089 13.3713 23.0286 13.6389C22.2481 13.9066 21.415 14.0111 20.5871 13.9454L20.6108 13.9688C19.9073 13.9024 19.1966 13.9834 18.5306 14.2061C17.8645 14.4287 17.2594 14.7876 16.7592 15.2567C16.2589 15.7257 15.8761 16.2933 15.6382 16.9182C15.4005 17.5432 15.3136 18.2098 15.3839 18.8701L15.3602 18.8479C15.4299 19.6247 15.318 20.4063 15.0327 21.1384C14.7473 21.8704 14.2951 22.5353 13.7078 23.0865C13.1204 23.6377 12.4119 24.0619 11.6318 24.3298C10.8517 24.5976 10.0187 24.7025 9.19098 24.6372L9.21463 24.6594C8.22434 24.572 7.22947 24.7736 6.36571 25.2364C5.50196 25.6993 4.81137 26.4008 4.38815 27.2455C3.96493 28.0903 3.82966 29.0368 4.00082 29.9563C4.17198 30.8757 4.64123 31.7233 5.34455 32.3832C6.04787 33.0433 6.95103 33.4836 7.93084 33.6442C8.91065 33.8048 9.9194 33.6779 10.8195 33.2807C11.7196 32.8836 12.4673 32.2356 12.9605 31.4251C13.4537 30.6144 13.6685 29.6809 13.5754 28.7516L13.6004 28.7738C13.5305 27.9969 13.6422 27.2152 13.9275 26.483C14.2127 25.7509 14.665 25.086 15.2523 24.5347C15.8398 23.9835 16.5483 23.5591 17.3285 23.2915C18.1088 23.0237 18.9418 22.9189 19.7697 22.9845Z" fill="white"/>
<path d="M10.9611 20.5095C11.4593 20.0393 11.8407 19.4718 12.0781 18.8473C12.3155 18.2229 12.4031 17.5569 12.3346 16.897L12.3595 16.9192C12.2896 16.1422 12.4013 15.3602 12.6867 14.6278C12.9722 13.8955 13.4246 13.2305 14.0124 12.6792C14.6001 12.1279 15.3089 11.7036 16.0895 11.4361C16.87 11.1685 17.7034 11.064 18.5314 11.13L18.5065 11.1078C19.4964 11.1948 20.4909 10.9932 21.3543 10.5304C22.2176 10.0676 22.9077 9.36617 23.3308 8.52176C23.7537 7.67735 23.8889 6.73108 23.7177 5.81196C23.5466 4.89284 23.0774 4.04564 22.3744 3.38588C21.6714 2.72612 20.7685 2.28592 19.7891 2.12532C18.8097 1.9647 17.8012 2.09151 16.9015 2.48842C16.0016 2.88533 15.2541 3.53304 14.761 4.34322C14.2678 5.1534 14.0529 6.08661 14.1457 7.01558L14.122 6.99338C14.1919 7.7702 14.0802 8.55197 13.7949 9.28412C13.5095 10.0163 13.0575 10.6812 12.47 11.2324C11.8826 11.7837 11.174 12.208 10.3938 12.4757C9.61362 12.7434 8.78054 12.8483 7.95274 12.7826L7.9764 12.8048C7.16755 12.7368 6.35347 12.8615 5.60961 13.1672C4.86575 13.4729 4.21616 13.95 3.72106 14.5541C3.22595 15.158 2.90135 15.8697 2.77731 16.6228C2.65328 17.3759 2.73383 18.1463 3.0115 18.8624C3.28917 19.5786 3.75499 20.2173 4.36578 20.7195C4.97657 21.2219 5.71257 21.5713 6.50558 21.7355C7.29858 21.8997 8.12294 21.8734 8.90227 21.6592C9.68159 21.4448 10.3907 21.0494 10.9638 20.5095H10.9611Z" fill="white"/>
<path d="M51.6738 8.20801H55.5773V26.0334H51.6738V8.20801Z" fill="white"/>
<path d="M57.788 19.9298C57.7826 18.6489 58.1824 17.3951 58.9368 16.3275C59.6912 15.2599 60.7663 14.4264 62.0259 13.9327C63.2856 13.4389 64.6729 13.3071 66.0124 13.5538C67.352 13.8006 68.5833 14.4148 69.5505 15.3189C70.5177 16.2228 71.1772 17.3758 71.4456 18.6318C71.7139 19.8879 71.579 21.1904 71.0578 22.3744C70.5367 23.5583 69.6529 24.5706 68.5182 25.2827C67.3835 25.995 66.0492 26.3752 64.6841 26.3752C63.778 26.3849 62.8789 26.225 62.0393 25.9048C61.1998 25.5846 60.4367 25.1107 59.7947 24.5106C59.1525 23.9105 58.6444 23.1963 58.2999 22.4098C57.9553 21.6233 57.7813 20.7802 57.788 19.9298ZM67.6767 19.9298C67.6604 19.3776 67.471 18.8423 67.1323 18.3905C66.7935 17.9388 66.3204 17.5908 65.772 17.3901C65.2236 17.1893 64.6244 17.1447 64.0491 17.2619C63.4739 17.379 62.9482 17.6526 62.5377 18.0486C62.1274 18.4445 61.8504 18.9452 61.7417 19.4881C61.6328 20.0309 61.6968 20.5919 61.9259 21.1007C62.155 21.6096 62.5388 22.0437 63.0293 22.349C63.5199 22.6542 64.0955 22.817 64.6841 22.817C65.0872 22.8272 65.4882 22.7587 65.8618 22.6161C66.2353 22.4736 66.5734 22.2599 66.8545 21.9887C67.1356 21.7174 67.3539 21.3944 67.4953 21.0401C67.6369 20.6857 67.6987 20.3077 67.6767 19.9298Z" fill="white"/>
<path d="M87.137 13.8247V25.418C87.137 29.5201 83.7277 31.2541 80.2672 31.2541C79.0488 31.3397 77.8288 31.1087 76.741 30.5866C75.6533 30.0644 74.7397 29.2713 74.1006 28.2941L77.431 26.4873C77.6996 26.9967 78.1277 27.4169 78.6577 27.6918C79.1879 27.9665 79.7948 28.083 80.3973 28.0253C80.7824 28.0753 81.1746 28.0435 81.5448 27.9321C81.9149 27.8208 82.2537 27.6327 82.536 27.3819C82.8183 27.1311 83.0369 26.824 83.1757 26.4831C83.3144 26.1423 83.3696 25.7766 83.3374 25.4131V24.2969C82.8803 24.8217 82.2985 25.2387 81.6386 25.5143C80.9787 25.79 80.2593 25.9166 79.5378 25.8842C77.821 25.8334 76.1928 25.1578 74.9976 24.0001C73.8023 22.8427 73.134 21.2941 73.134 19.6824C73.134 18.0707 73.8023 16.5221 74.9976 15.3646C76.1928 14.207 77.821 13.5314 79.5378 13.4806C80.2593 13.4481 80.9787 13.5748 81.6386 13.8504C82.2985 14.1261 82.8803 14.5431 83.3374 15.0679V13.8222L87.137 13.8247ZM83.3387 19.6842C83.365 19.0939 83.2023 18.5097 82.8717 18.0069C82.5412 17.5039 82.0578 17.1054 81.4838 16.8626C80.9099 16.6196 80.2717 16.5435 79.6512 16.6439C79.0307 16.7443 78.4565 17.0166 78.0023 17.426C77.5482 17.8352 77.235 18.3626 77.1029 18.9403C76.971 19.518 77.0262 20.1196 77.2617 20.6676C77.4971 21.2155 77.9019 21.6849 78.4239 22.0152C78.9459 22.3455 79.5614 22.5216 80.191 22.5209C80.6011 22.5478 81.0127 22.4938 81.3992 22.3623C81.7857 22.2308 82.1386 22.0247 82.4351 21.7576C82.7316 21.4903 82.9653 21.1678 83.1209 20.8106C83.2765 20.4536 83.3508 20.0699 83.3387 19.6842Z" fill="white"/>
<path d="M89.3478 19.9298C89.3425 18.6489 89.7421 17.3951 90.4967 16.3275C91.2511 15.2599 92.3261 14.4264 93.5858 13.9327C94.8454 13.4389 96.2327 13.3071 97.5722 13.5538C98.9118 13.8006 100.143 14.4148 101.11 15.3189C102.077 16.2228 102.737 17.3758 103.005 18.6318C103.274 19.8879 103.139 21.1904 102.618 22.3744C102.097 23.5583 101.213 24.5706 100.078 25.2827C98.9433 25.995 97.609 26.3752 96.2439 26.3752C95.3378 26.3849 94.4386 26.225 93.5992 25.9048C92.7596 25.5846 91.9965 25.1107 91.3545 24.5106C90.7123 23.9105 90.2042 23.1963 89.8598 22.4098C89.5151 21.6233 89.3411 20.7802 89.3478 19.9298ZM99.2365 19.9298C99.2202 19.3776 99.0308 18.8423 98.6921 18.3905C98.3533 17.9388 97.8802 17.5908 97.3319 17.3901C96.7834 17.1893 96.1841 17.1447 95.609 17.2619C95.0337 17.379 94.508 17.6526 94.0975 18.0486C93.6872 18.4445 93.4102 18.9452 93.3013 19.4881C93.1925 20.0309 93.2567 20.5919 93.4857 21.1007C93.7148 21.6096 94.0986 22.0437 94.5891 22.349C95.0797 22.6542 95.6552 22.817 96.2439 22.817C96.647 22.8272 97.048 22.7587 97.4215 22.6161C97.7951 22.4736 98.1332 22.2599 98.4143 21.9887C98.6954 21.7174 98.9137 21.3944 99.0551 21.0401C99.1967 20.6857 99.2585 20.3077 99.2365 19.9298Z" fill="white"/>
<path d="M104.96 10.5528C104.96 10.1181 105.097 9.69317 105.355 9.33176C105.612 8.97033 105.978 8.68862 106.406 8.52228C106.834 8.35593 107.305 8.31241 107.759 8.39721C108.213 8.48202 108.631 8.69134 108.958 8.99871C109.286 9.30607 109.509 9.69768 109.599 10.124C109.689 10.5503 109.643 10.9922 109.466 11.3938C109.289 11.7954 108.988 12.1387 108.603 12.3802C108.218 12.6217 107.765 12.7506 107.302 12.7506C106.683 12.7448 106.091 12.5114 105.653 12.1005C105.215 11.6895 104.966 11.1339 104.96 10.5528ZM105.354 13.8248H109.259V26.0348H105.349L105.354 13.8248Z" fill="white"/>
<path d="M126.114 19.9295C126.159 20.7365 126.034 21.5438 125.745 22.3052C125.457 23.0665 125.011 23.7668 124.433 24.3658C123.855 24.9647 123.156 25.4506 122.377 25.7955C121.599 26.1402 120.755 26.3372 119.895 26.3749C119.171 26.4119 118.448 26.2975 117.778 26.0398C117.108 25.782 116.507 25.3876 116.019 24.885V30.9173H112.115V13.8245H116.019V14.9715C116.507 14.4693 117.108 14.0751 117.778 13.8177C118.449 13.5602 119.171 13.4459 119.895 13.4829C120.755 13.5205 121.599 13.7173 122.378 14.0622C123.157 14.407 123.855 14.8929 124.433 15.4921C125.012 16.0913 125.458 16.7918 125.746 17.5534C126.034 18.3148 126.159 19.1224 126.114 19.9295ZM122.211 19.9295C122.195 19.3581 122.001 18.8036 121.651 18.3353C121.302 17.8671 120.813 17.506 120.246 17.2973C119.679 17.0885 119.059 17.0413 118.463 17.1617C117.868 17.2819 117.323 17.5643 116.898 17.9736C116.473 18.3829 116.186 18.9007 116.073 19.4624C115.959 20.0241 116.025 20.6045 116.262 21.1313C116.498 21.658 116.896 22.1075 117.403 22.4236C117.911 22.7395 118.506 22.9081 119.115 22.908C119.534 22.9255 119.951 22.8598 120.34 22.7152C120.729 22.5708 121.082 22.3507 121.374 22.0695C121.666 21.7881 121.892 21.4522 122.036 21.0834C122.18 20.7146 122.24 20.3213 122.211 19.9295Z" fill="white"/>
<path d="M138.159 22.3701C138.159 25.1784 135.558 26.3747 132.748 26.3747C131.612 26.4711 130.473 26.2459 129.475 25.7278C128.478 25.2098 127.669 24.4229 127.153 23.469L130.535 21.6621C130.672 22.103 130.965 22.4867 131.367 22.7488C131.769 23.011 132.255 23.136 132.743 23.1027C133.679 23.1027 134.148 22.8338 134.148 22.3466C134.148 21.0023 127.746 21.7115 127.746 17.4873C127.746 14.8245 130.14 13.4827 132.847 13.4827C133.864 13.4524 134.871 13.6789 135.763 14.1383C136.655 14.5978 137.401 15.2735 137.92 16.0949L134.589 17.7796C134.443 17.4598 134.2 17.1873 133.89 16.9963C133.58 16.8053 133.217 16.7041 132.847 16.7054C132.17 16.7054 131.753 16.952 131.753 17.3886C131.758 18.7811 138.159 17.8524 138.159 22.3701Z" fill="white"/>
<path d="M152.418 13.8247V26.0347H148.514V24.8865C148.064 25.3931 147.492 25.7924 146.845 26.0514C146.199 26.3104 145.497 26.4217 144.795 26.3763C142.166 26.3763 139.932 24.6188 139.932 21.3197V13.8247H143.836V20.7832C143.803 21.074 143.838 21.368 143.939 21.6447C144.039 21.9214 144.204 22.1742 144.419 22.3855C144.635 22.5968 144.896 22.7614 145.187 22.8681C145.476 22.9748 145.787 23.0209 146.099 23.0032C147.53 23.0032 148.518 22.2225 148.518 20.4884V13.8284L152.418 13.8247Z" fill="white"/>
<path d="M174.8 18.5373V26.0335H170.897V18.8543C170.897 17.6333 170.272 16.8526 169.024 16.8526C167.723 16.8526 166.993 17.7073 166.993 19.1478V26.0335H163.091V18.8543C163.091 17.6333 162.467 16.8526 161.217 16.8526C159.916 16.8526 159.188 17.7073 159.188 19.1478V26.0335H155.284V13.8235H159.188V14.9458C159.592 14.4479 160.123 14.053 160.732 13.7973C161.342 13.5416 162.009 13.4331 162.674 13.4819C163.342 13.4512 164.007 13.5835 164.605 13.8658C165.202 14.148 165.71 14.5708 166.082 15.0926C166.515 14.5466 167.088 14.1125 167.748 13.8308C168.407 13.5491 169.133 13.4291 169.856 13.4819C172.843 13.4831 174.8 15.4848 174.8 18.5373Z" fill="white"/>
<path d="M178.102 13.7495C179.701 13.7495 180.998 12.5325 180.998 11.0313C180.998 9.52999 179.701 8.31299 178.102 8.31299C176.502 8.31299 175.205 9.52999 175.205 11.0313C175.205 12.5325 176.502 13.7495 178.102 13.7495Z" fill="white"/>
</svg>
